# xmcd
#
# Track frame offsets:
#	150
#	14503
#	27161
#	40994
#	54179
#	66828
#	83209
#	94319
#	110262
#	126773
#
# Disc length: 1894 seconds
#
# Revision: 1
# Processed by: cddbd v1.5.2PL0 Copyright (c) Steve Scherf et al.
# Submitted via: audiograbber 1.83.01
#
DISCID=7c07640a
DTITLE=Various Artist - No 1. Country Hits (Disk 1)
DYEAR=2006
DGENRE=Country
TTITLE0=T. Graham Brown - Hell and High Water
TTITLE1=Holly Dunn - You Really Had Me Going
TTITLE2=Moe Bandy - I Cheated Me Right out of You
TTITLE3=Lynn Anderson - Rose Garden
TTITLE4=Exile - Give Me One More Chance
TTITLE5=Janie Fricke - Always Have, Always Will
TTITLE6=Mickey Gilley - That's All that Matters
TTITLE7=Pam Tillis - Mi Vida Loca (My Crazy Life)
TTITLE8=Doug Stone - In a Different Light
TTITLE9=T.G. Sheppard - Slow Burn
EXTD=Three disk set produced by Madacy Entertainment
EXTT0=
EXTT1=
EXTT2=
EXTT3=
EXTT4=
EXTT5=
EXTT6=
EXTT7=
EXTT8=
EXTT9=
PLAYORDER=
